# xmcd
#
# Track frame offsets: 
#        150
#        18058
#        37145
#        52772
#        65049
#        77775
#        87403
#        99695
#        139881
#        158319
#        178264
#        189310
#        200802
#        214609
#        228606
#
# Disc length: 3206 seconds
#
# Revision: 1
# Processed by: cddbd v1.5.1PL2 Copyright (c) Steve Scherf et al.
# Submitted via: ExactAudioCopy v0.95b3
#
DISCID=cd0c840f
DTITLE=Various Artist - The History Of Blues
DYEAR=2000
DGENRE=Blues
TTITLE0=B.B.King - Paying The Cost To Be The Boss
TTITLE1=John Lee Hooker - Boom Boom
TTITLE2=Albert King - Born Under A Bad Sign
TTITLE3=Elmore James - The Sky Is Crying
TTITLE4=Muddy Waters - Hoochie Coochie Man
TTITLE5=Koko Taylor - Love You Like A Woman
TTITLE6=Johnny Winter - Good Morning Little School Girl
TTITLE7=Jimi Hendrix - Red House
TTITLE8=Robert Cray - The Score
TTITLE9=Howlin' Wolf - Wang Dan Doodle
TTITLE10=Bo Diddley - Bo Diddley
TTITLE11=Etta James - I'd Rather Go Blind
TTITLE12=Willie Dixon - Walking The Blues
TTITLE13=Memphis Slim - Trouble In My Mind
TTITLE14=Lightnin'n Hopkins - Have You Ever Loved A Woman?
EXTD=
EXTT0=
EXTT1=
EXTT2=
EXTT3=
EXTT4=
EXTT5=
EXTT6=
EXTT7=
EXTT8=
EXTT9=
EXTT10=
EXTT11=
EXTT12=
EXTT13=
EXTT14=
PLAYORDER=
